<svg xmlns="http://www.w3.org/2000/svg" width="16" height="16" fill="none"><path fill="#969696" d="M11.6 14.667A10.28 10.28 0 0 1 1.333 4.4 3.067 3.067 0 0 1 4.4 1.333c.172-.001.344.015.513.047.164.024.325.064.48.12a.667.667 0 0 1 .434.5l.913 4a.667.667 0 0 1-.173.613c-.087.094-.094.1-.914.527A6.607 6.607 0 0 0 8.9 10.4c.433-.827.44-.833.533-.92a.667.667 0 0 1 .614-.173l4 .913a.667.667 0 0 1 .48.433 2.89 2.89 0 0 1 .166.994 3.067 3.067 0 0 1-3.093 3.02Zm-7.2-12A1.74 1.74 0 0 0 2.667 4.4a8.94 8.94 0 0 0 8.933 8.933 1.74 1.74 0 0 0 1.733-1.733v-.22l-3.093-.713-.193.366c-.3.58-.52 1-1.08.774A7.9 7.9 0 0 1 4.18 7c-.24-.52.213-.76.787-1.06l.366-.18-.713-3.093H4.4Z"/></svg>