<svg aria-hidden="true" style="position: absolute; width: 0; height: 0; overflow: hidden;" version="1.1" xmlns="http://www.w3.org/2000/svg" xmlns:xlink="http://www.w3.org/1999/xlink">
<defs>
<symbol id="icon-bx-cart" viewBox="0 0 32 32">
<path fill="#fff" style="fill: var(--color1, #fff)" d="M29.095 9.908c-0.244-0.349-0.643-0.574-1.095-0.575h-18.223l-1.539-3.695c-0.411-0.971-1.355-1.639-2.456-1.639-0.002 0-0.004 0-0.006 0h-3.111v2.666h3.111l6.324 15.181c0.206 0.485 0.679 0.819 1.229 0.819 0 0 0.001 0 0.001 0h10.668c0.568-0 1.053-0.355 1.246-0.855l0.003-0.009 4-10.666c0.053-0.139 0.084-0.299 0.084-0.467 0-0.285-0.089-0.549-0.241-0.765l0.003 0.004zM23.076 20h-8.854l-3.334-8h15.187l-2.999 8zM14 28c1.105 0 2-0.895 2-2s-0.895-2-2-2v0c-1.105 0-2 0.895-2 2s0.895 2 2 2v0zM23.334 28c1.105 0 2-0.895 2-2s-0.895-2-2-2v0c-1.105 0-2 0.895-2 2s0.895 2 2 2v0z"></path>
</symbol>
<symbol id="icon-log-in" viewBox="0 0 32 32">
<path fill="#969696" style="fill: var(--color2, #969696)" d="M12 2.667h12c1.471 0.004 2.662 1.194 2.667 2.665v21.335c-0.005 1.471-1.197 2.661-2.667 2.665h-12c-1.471-0.004-2.662-1.195-2.667-2.665v-2.668h2.667v2.667h12v-21.335h-12v2.667h-2.667v-2.667c0.005-1.471 1.197-2.661 2.667-2.665h0z"></path>
<path fill="#969696" style="fill: var(--color2, #969696)" d="M13.454 20.786l1.879 1.881 6.667-6.667-6.667-6.667-1.879 1.881 3.44 3.451h-12.894v2.667h12.891l-3.435 3.454z"></path>
</symbol>
<symbol id="icon-phone" viewBox="0 0 32 32">
<path d="M23.2 29.334c-11.335-0.015-20.519-9.199-20.534-20.533v-0.001c0-3.388 2.746-6.134 6.134-6.134v0c0.344-0.002 0.688 0.030 1.026 0.094 0.328 0.048 0.65 0.128 0.96 0.24 0.443 0.158 0.773 0.532 0.867 0.991l0.001 0.009 1.826 8c0.021 0.089 0.033 0.19 0.033 0.295 0 0.362-0.145 0.691-0.379 0.932l0-0c-0.174 0.188-0.188 0.2-1.828 1.054 1.341 2.893 3.608 5.168 6.413 6.486l0.081 0.034c0.866-1.654 0.88-1.666 1.066-1.84 0.24-0.235 0.569-0.379 0.932-0.379 0.105 0 0.207 0.012 0.305 0.035l-0.009-0.002 8 1.826c0.451 0.107 0.808 0.433 0.957 0.857l0.003 0.009c0.211 0.575 0.332 1.239 0.332 1.931 0 0.020-0 0.040-0 0.060l0-0.003c-0.053 3.347-2.779 6.040-6.133 6.040-0.019 0-0.037-0-0.056-0l0.003 0zM8.8 5.334c-1.911 0.008-3.458 1.555-3.466 3.465v0.001c0.008 9.864 8.002 17.858 17.865 17.866h0.001c1.911-0.008 3.458-1.555 3.466-3.465v-0.441l-6.186-1.426-0.386 0.732c-0.6 1.16-1.040 2-2.16 1.548-4.485-1.638-7.954-5.12-9.539-9.504l-0.035-0.11c-0.48-1.040 0.426-1.52 1.574-2.12l0.732-0.36-1.426-6.186h-0.44z"></path>
</symbol>
<symbol id="icon-search" viewBox="0 0 32 32">
<path fill="#fff" style="fill: var(--color1, #fff)" d="M28 25.334l-6.873-6.873c0.962-1.444 1.535-3.219 1.535-5.128 0-5.155-4.179-9.334-9.334-9.334s-9.334 4.179-9.334 9.334c0 5.155 4.179 9.334 9.334 9.334 1.911 0 3.687-0.574 5.167-1.559l-0.034 0.021 6.873 6.871 2.666-2.666zM6.666 13.334c0.004-3.681 2.987-6.663 6.667-6.668h0c3.68 0.005 6.662 2.987 6.666 6.667v0c-0.005 3.68-2.987 6.661-6.666 6.666h-0c-3.68-0.004-6.663-2.986-6.668-6.666v-0z"></path>
</symbol>
<symbol id="icon-menu" viewBox="0 0 32 32">
<path d="M26.733 14.667h-21.466c-0.7 0-1.267 0.567-1.267 1.266v0.134c0 0.7 0.567 1.266 1.267 1.266h21.466c0.7 0 1.267-0.567 1.267-1.266v-0.134c0-0.7-0.567-1.266-1.267-1.266zM26.733 21.333h-21.466c-0.7 0-1.267 0.567-1.267 1.267v0.133c0 0.7 0.567 1.267 1.267 1.267h21.466c0.7 0 1.267-0.567 1.267-1.267v-0.133c0-0.7-0.567-1.267-1.267-1.267zM26.733 8h-21.466c-0.7 0-1.267 0.567-1.267 1.267v0.133c0 0.7 0.567 1.267 1.267 1.267h21.466c0.7 0 1.267-0.567 1.267-1.267v-0.133c0-0.7-0.567-1.267-1.267-1.267z"></path>
</symbol>
<symbol id="icon-close" viewBox="0 0 32 32">
<path d="M23.884 6.706l-7.884 7.884-7.884-7.884c-0.177-0.162-0.414-0.262-0.674-0.262-0.551 0-0.998 0.447-0.998 0.998 0 0.26 0.099 0.497 0.262 0.674l-0.001-0.001 7.88 7.884-7.882 7.882c-0.181 0.181-0.293 0.43-0.293 0.706 0 0.551 0.447 0.998 0.998 0.998 0.275 0 0.524-0.111 0.705-0.292v0l7.886-7.882 7.884 7.884c0.177 0.162 0.414 0.262 0.674 0.262 0.551 0 0.998-0.447 0.998-0.998 0-0.26-0.099-0.497-0.262-0.674l0.001 0.001-7.884-7.884 7.884-7.886c0.181-0.181 0.293-0.43 0.293-0.706 0-0.551-0.447-0.998-0.998-0.998-0.275 0-0.524 0.111-0.705 0.292v0 0.002z"></path>
</symbol>
</defs>
</svg>
